# xmcd
#
# Track frame offsets:
#	150
#	19305
#	37427
#	56847
#	75345
#	100202
#	111370
#	130592
#	152535
#	173027
#	184352
#
# Disc length: 2656 seconds
#
# Revision: 0
# Processed by: cddbd v1.5.2PL0 Copyright (c) Steve Scherf et al.
# Submitted via: dBpowerAMP V4.0
#
DISCID=900a5e0b
DTITLE=Finn-Arne Lauvås - Finn-Arne Lauvås 5
DYEAR=1993
DGENRE=Gospel
TTITLE0=Hei, mister ungdom
TTITLE1=Nå bryter det fram
TTITLE2=Jesus, fyll meg
TTITLE3=Når jeg tenker tilbake
TTITLE4=La meg se ditt smil
TTITLE5=La ditt lys stråle
TTITLE6=Da fødtes tonen
TTITLE7=Jeg tilber deg Jesus
TTITLE8=Nå er natten over
TTITLE9=Du er veien
TTITLE10=Gud, tenn din ild
EXTD=
EXTT0=
EXTT1=
EXTT2=
EXTT3=
EXTT4=
EXTT5=
EXTT6=
EXTT7=
EXTT8=
EXTT9=
EXTT10=
PLAYORDER=
